# xmcd
#
# Track frame offsets: 
#        150
#        14220
#        25727
#        40577
#        54990
#        71178
#        81793
#        95863
#        107600
#        120050
#        131668
#        145880
#        162923
#        174060
#
# Disc length: 2432 seconds
#
# Revision: 0
# Processed by: cddbd v1.5.2PL0 Copyright (c) Steve Scherf et al.
# Submitted via: ExactAudioCopy v1.1
#
DISCID=b2097e0e
DTITLE=Ruth Wyand - Tribe of One
DYEAR=2018
DGENRE=Blues
TTITLE0=Bad Mojo (Working Overtime)
TTITLE1=Break the Curse
TTITLE2=The Last Nail
TTITLE3=Better Off Alone
TTITLE4=Help My Soul Survive
TTITLE5=Till It's Safe to Go Outside
TTITLE6=Blind Willie McTell
TTITLE7=Love on the Line Blues
TTITLE8=I Don't Have Proof
TTITLE9=100 Proof
TTITLE10=Little Wing
TTITLE11=Broken Woman
TTITLE12=Mint Julep
TTITLE13=On the Porch With Etta
EXTD=
EXTT0=
EXTT1=
EXTT2=
EXTT3=
EXTT4=
EXTT5=
EXTT6=
EXTT7=
EXTT8=
EXTT9=
EXTT10=
EXTT11=
EXTT12=
EXTT13=
PLAYORDER=
